<?xml version="1.0" encoding="UTF-8"?>
<svg xmlns="http://www.w3.org/2000/svg" version="1.1" viewBox="0 0 228.2 158.4">
  <defs>
    <style>
      .cls-1 {
        fill: #fff;
      }
    </style>
  </defs>
  <!-- Generator: Adobe Illustrator 28.7.1, SVG Export Plug-In . SVG Version: 1.2.0 Build 142)  -->
  <g>
    <g id="Layer_1">
      <path class="cls-1" d="M48.1,77.2c18.2,0,33.1,14.8,33.1,33.1s-14.8,33.1-33.1,33.1-33.1-14.9-33.1-33.1,14.9-33.1,33.1-33.1M48.1,62.2C21.5,62.2,0,83.8,0,110.3s21.5,48.1,48.1,48.1,48.1-21.5,48.1-48.1-21.5-48.1-48.1-48.1h0Z"/>
      <path class="cls-1" d="M148.6,108c9.2,0,16.7,7.5,16.7,16.7s-7.5,16.7-16.7,16.7-16.7-7.5-16.7-16.7,7.5-16.7,16.7-16.7M148.6,93c-17.5,0-31.7,14.2-31.7,31.7s14.2,31.7,31.7,31.7,31.7-14.2,31.7-31.7-14.2-31.7-31.7-31.7h0Z"/>
      <line class="cls-1" x1="30.3" y1="9.8" x2="46.3" y2="69"/>
      <path class="cls-1" d="M40.9,76.5c-2.1,0-4.1-2.2-4.7-5.5L25.8,11.7c-.7-4,.8-8.1,3.4-9.2,2.6-1.1,5.3,1.3,6,5.3l10.4,59.2c.7,4-.8,8.1-3.4,9.2-.4.2-.9.3-1.3.3h0Z"/>
      <path class="cls-1" d="M159.5,9.8H30.3c-4.1,0-4.6-1.1-4.6-3.8s.5-6,4.6-6h129.2c4.1,0,7.5,2.2,7.5,4.9s-3.4,4.9-7.5,4.9h0Z"/>
      <path class="cls-1" d="M159.4,92c-1.2,0-2.4-.3-3.5-.8-3.7-1.9-5.1-6.4-3.2-10.1l20.8-39.9c1.2-2.2,3.4-3.7,5.9-4l40.4-4c4.1-.4,7.8,2.6,8.2,6.7s-2.6,7.8-6.7,8.2l-36.4,3.7-18.9,36.3c-1.3,2.6-3.9,4-6.6,4h0Z"/>
      <path class="cls-1" d="M158,92.8h-74.7c-4.1,0-7.5-1.8-7.5-4.1s3.3-4.1,7.5-4.1h74.7c4.1,0,7.5,1.8,7.5,4.1s-3.4,4.1-7.5,4.1Z"/>
      <polygon class="cls-1" points="85.9 7.5 93.3 7.4 93.6 86.2 86.1 86.4 85.9 7.5"/>
      <polygon class="cls-1" points="129.5 88.5 130 7.3 136.1 7.6 135.6 88.7 129.5 88.5"/>
      <rect class="cls-1" x="40.1" y="46" width="140.2" height="6.1"/>
      <g id="Layer_2">
        <rect class="cls-1" x="46.7" y="70.4" width="2.8" height="78.2"/>
        <rect class="cls-1" x="4.9" y="108.9" width="81.9" height="2.8"/>
        <rect class="cls-1" x="6" y="108.3" width="86.1" height="2.8" transform="translate(-63.2 66.8) rotate(-45)"/>
        <rect class="cls-1" x="47.8" y="68.2" width="2.8" height="84.7" transform="translate(-64.7 69.6) rotate(-46.2)"/>
        <rect class="cls-1" x="147.2" y="103.8" width="2.8" height="46.7"/>
        <rect class="cls-1" x="128.1" y="123.3" width="44.5" height="2.8"/>
        <rect class="cls-1" x="125.6" y="124.8" width="44.9" height="2.8" transform="translate(-45.9 141.6) rotate(-45)"/>
        <rect class="cls-1" x="148.4" y="102.9" width="2.8" height="45.2" transform="translate(-44.9 142.7) rotate(-45)"/>
      </g>
    </g>
  </g>
</svg>