<?xml version="1.0" encoding="UTF-8"?>
<svg xmlns="http://www.w3.org/2000/svg" version="1.1" viewBox="0 0 1438.6 312.8">
  <defs>
    <style>
      .cls-1 {
        fill: #fff;
      }
    </style>
  </defs>
  <!-- Generator: Adobe Illustrator 28.7.1, SVG Export Plug-In . SVG Version: 1.2.0 Build 142)  -->
  <g>
    <g id="Layer_2">
      <g id="Layer_1-2">
        <path class="cls-1" d="M88.8,1.5c15.7,0,33.4,4.5,53,13.6,19.6,9.1,35.5,22.6,47.6,40.6,12.1,18,18.2,39,18.2,63s-10.1,59.5-30.1,80.5-46.2,31.6-78.2,31.6l-89-.6c-2.4,0-4.4-.6-6.1-1.8-1.7-1.2-2.5-2.9-2.5-5s.6-3.3,1.7-4.4c1.1-1.2,4.3-2,9.4-2.6,5.1-.6,8.4-1.7,9.8-3.3,1.4-1.6,2.1-3.6,2.1-6V28.7c0-4.7-.8-8.1-2.3-10.2s-3.1-3.3-4.9-3.7c-1.7-.4-5.1-.6-10-.6s-5.1-.5-6.1-1.5C.5,11.7,0,10.2,0,8c0-4.3,3.4-6.5,10.4-6.5h78.5ZM51.3,198.2c0,6.1,2.8,10.7,8.3,13.9,5.6,3.2,15.8,4.9,30.7,4.9s28.4-2.1,36.7-6.3c14.1-7.2,25.5-18.6,34.2-34.3s13.1-31.6,13.1-47.6-1.2-27-3.5-39.3-6.6-23.3-12.8-33.2c-6.1-9.9-15.4-19.2-27.8-28-12.4-8.8-28.8-13.2-49.4-13.2s-29.6,4.3-29.6,12.9v170.2h0Z"/>
        <path class="cls-1" d="M313.8,167c2.4,0,4-.4,4.9-1.2s1.3-2.3,1.3-4.5c0-8-3.1-15.5-9.3-22.4-6.2-7-15.6-10.4-28.2-10.4s-17.7,4.1-26.9,12.4-13.9,19.9-13.9,35.1,4.9,21,14.6,29.9,20.7,13.2,32.8,13.2,19.1-2.9,29.8-8.6c4.1-2.2,6.7-3.3,8-3.3,1.9,0,3.4.5,4.5,1.6s1.6,2.4,1.6,4c0,3.8-5.8,8.4-17.4,13.9-11.6,5.4-23.5,8.2-35.7,8.2-18.1,0-33.3-6.2-45.7-18.5-12.4-12.4-18.5-27.1-18.5-44.1s6.8-28.9,20.3-40c13.6-11.1,28.8-16.6,45.6-16.6s38.2,5.6,49.1,16.8c10.9,11.2,16.3,24.6,16.3,40.2s-.8,5.4-2.5,6.2-4.8,1.2-9.2,1.2h-71.9c-5.9,0-8.8-2.2-8.8-6.5s3-6.2,9.1-6.2h50.1Z"/>
        <path class="cls-1" d="M404.5,223.2c-.6.6-1.3,1.7-1.9,3.2s-1.4,2.6-2.3,3.4c-.9.7-2.5,1.1-4.8,1.1s-4.6-.4-8.4-1.3c-3.8-.9-6.8-1.3-9-1.3s-5.3.4-9.2,1.3c-3.9.9-6.9,1.3-8.9,1.3s-4.5-.6-6.3-1.8-2.7-2.9-2.7-5,.5-2.5,1.6-3.5c1-.9,4.7-2.1,10.9-3.3s10.4-3.7,12.6-7.2,3.4-7.8,3.4-12.7V36.2c0-8.7-2-14.7-6.1-18.2-2.3-2-6-3.3-11-4.1-5-.7-8.1-1.7-9.1-2.9s-1.6-2.7-1.6-4.4,1-3.1,3.1-4.2c2-1.1,4-1.7,5.9-1.7s5.2.4,9.3,1.3c4.1.9,7.1,1.3,9.1,1.3s4.5-.3,8-1c3.5-.7,6-1,7.7-1,3.1,0,5.4.9,6.9,2.6,1.5,1.7,2.2,4.9,2.2,9.7v183.6c0,6.5,4,12.3,12,17.4,8,5.1,15.5,7.6,22.6,7.6s16.8-3.4,25.9-10.4c9.1-6.9,13.6-18.4,13.6-34.4s-3.6-23.1-10.8-31.9c-7.2-8.8-16.5-13.3-28-13.3s-8.9,1.2-13.5,3.6-7.7,3.6-9.2,3.6-2.5-.6-3.8-1.6c-1.3-1.1-2-2.2-2-3.2,0-4.7,4-8.8,12.1-12.4,8-3.6,15.1-5.3,21.3-5.3,17.1,0,31.4,6.2,42.9,18.4,11.4,12.3,17.2,27.3,17.2,45s-6,29.6-18,40.1c-12,10.5-26.4,15.8-43.3,15.8s-19.4-3.4-32.6-10.3l-5.6-2.7h0Z"/>
        <path class="cls-1" d="M580,115c17.4,0,32.5,6,45.4,17.9,12.9,11.9,19.4,25.7,19.4,41.3s-6.2,31.7-18.5,42.7c-12.3,11-28.9,16.5-49.6,16.5s-31-5.6-44-16.8c-13-11.2-19.5-25.1-19.5-41.8s5.7-29.9,17.2-41.8,28-18,49.7-18h0ZM580.2,219.6c12,0,21.6-4.3,28.8-13s10.8-19.7,10.8-33-3.8-23.8-11.5-32.2-17.5-12.6-29.3-12.6-21.6,4.1-28.2,12.3c-6.7,8.2-10,18.8-10,31.8s3.7,25.7,11.2,34.1c7.4,8.4,16.9,12.6,28.4,12.6h0Z"/>
        <path class="cls-1" d="M677.5,146.4c0-3.9-.8-6.8-2.3-8.7-1.5-1.9-4.7-3.3-9.5-4.1-4.8-.8-7.2-3-7.2-6.5s.8-2.9,2.5-4.4,3.9-2.2,6.6-2.2,3.2.4,6.1,1.1c2.9.7,5.3,1.1,7.2,1.1s3.8-.3,8-.9c4.2-.6,6.8-.9,7.8-.9,2.1,0,3.6.9,4.4,2.6.8,1.7,1.3,5.2,1.4,10.4.2,8.7.3,17.9.3,27.8l-.9,44.7c0,3.2.3,5.2.8,6,.5.7,1.8,1.7,3.7,2.8,1.9,1.1,4.4,2,7.5,2.7,3,.6,5,1.5,5.8,2.6.8,1.1,1.3,2.4,1.3,3.9,0,3.5-2.7,5.3-8.2,5.3s-7.7-.3-11.7-1c-4-.7-7.9-1-11.8-1s-7.2.3-12.2.9c-5,.6-8.7.9-11.1.9-5.3,0-8-2-8-5.9s.5-3.1,1.4-4.1,3-1.7,6.1-1.9c3.6-.2,5.8-.7,6.6-1.6,2.4-2.5,3.9-4.7,4.5-6.6s.9-5.7.9-11.6v-51.2h0ZM773.7,206.7c0,4.5.8,7.5,2.3,8.9,1.5,1.4,4.2,2.6,8.2,3.4,3.9.9,5.9,2.6,5.9,5s-1.9,5-5.8,5-3.9-.2-9.4-.6c-5.6-.4-10.2-.6-14-.6-6.3,0-11.6.4-15.9,1.2-4.3.8-7.1,1.2-8.3,1.2-1.9,0-3.7-.6-5.3-1.9s-2.4-2.8-2.4-4.6.7-2.7,2-3.9c1.4-1.2,2.9-1.8,4.7-1.8,3.3,0,6.3-1,9-2.9,2.6-1.9,3.9-4.8,3.9-8.7,0-25.2.2-40.8.5-46.8s.5-9.4.5-10.1c0-8.1-3.7-12.2-11.2-12.2s-7.8,2.5-13.8,7.4-10.2,7.4-12.7,7.4-1.8-.5-2.8-1.6c-1-1.1-1.6-2.2-1.6-3.4,0-3.7,4.8-9.3,14.4-16.9,9.6-7.5,19-11.3,28.2-11.3s10.1,1.4,14.1,4.2c4,2.8,6.6,6.2,7.9,10.4s2,10.1,2,17.7l-.2,10.1v45.4h0Z"/>
        <path class="cls-1" d="M920.2,201.7c0,7.5,5,12.8,15.1,15.7,2.5.7,4.4,1.6,5.6,2.5s1.8,2.8,1.8,5.4-.8,2.6-2.4,3.6c-1.6,1-3.4,1.5-5.3,1.5s-4.7-.5-8.1-1.4-6.2-1.4-8.2-1.4-5.4.5-9.1,1.4c-3.7.9-6.1,1.4-7.4,1.4s-2.9-.5-4.3-1.6c-1.4-1-2.1-2.1-2.1-3.1,0-1.7-.5-2.5-1.6-2.5s-1.7.4-2.8,1.1c-11.8,7.3-24.6,11-38.3,11s-13.7-1.7-21.7-5c-8-3.4-14.4-8.5-19.2-15.5s-7.2-15.6-7.2-25.8,5.2-20.5,15.6-28.9c10.4-8.4,23.8-12.6,40.2-12.6s11.6,1.6,18.2,4.6c6.6,3.1,10,6.2,10,9.5s-.7,2.8-2,3.8-3,1.4-5,1.4-4-.9-8-2.8c-4-1.9-8.1-2.8-12.2-2.8-8.6,0-15.7,2.5-21.3,7.6-5.7,5.1-8.5,11.8-8.5,20.3s3.2,17.4,9.7,22.6c6.5,5.3,14,7.9,22.5,7.9s14.7-2.5,21.1-7.5c6.4-5,9.7-11.7,9.7-20.1v-42.5c0-6.4-2.1-11.6-6.3-15.5-4.2-4-9.9-6-17-6s-17.9,2.9-26.5,8.6c-2.9,2-4.9,3-6,3-2.5,0-4.7-.6-6.4-2-1.8-1.3-2.7-3-2.7-5.1,0-5.1,4.7-9.5,14-13,9.4-3.6,19.6-5.3,30.7-5.3s24.8,3.4,33.1,10.3,12.6,15.1,12.6,24.6v52.7h0Z"/>
        <path class="cls-1" d="M1040.4,208.9c2.7,0,4.1,1.3,4.1,3.9s-4.2,7.3-12.5,12.1c-8.3,4.8-16.7,7.2-24.9,7.2s-11.7-1.9-18.2-5.7c-6.5-3.8-10.5-8.6-12.1-14.3s-2.4-16-2.4-30.8l.3-31.5c0-8.5-3.8-13.5-11.3-15-4.4-.9-7.2-1.7-8.4-2.5-1.2-.8-1.8-2.4-1.8-4.7s.5-3.2,1.4-4.4c.9-1.2,2.2-1.8,3.8-1.8s4.5.5,9,1.5c4.5,1,7.4,1.5,8.7,1.5s4.5-.5,9.1-1.5,7.5-1.5,8.7-1.5,1.6.4,2.7,1.1,1.7,1.5,1.8,2.3c.2.8.4,8.1.6,21.8s.4,26.3.4,37.8.3,15.1.9,19,2.6,7.1,5.8,9.6c3.3,2.5,7.6,3.7,13,3.7s8.3-1.3,12.6-3.9,7.3-3.9,8.7-3.9h0ZM1069.7,121.5c3.7,0,5.5,2.6,5.5,7.7,0,10.1.2,25,.5,44.4.3,19.5.5,32.6.5,39.2,0,23.4-2.7,40.2-8.2,50.3-5.4,10.1-11.3,17.1-17.5,21.1-6.2,4-13.9,6-22.9,6s-13.7-1.1-18.2-3.3c-4.5-2.2-6.7-4.2-6.7-6s.4-1.8,1.3-2.8,1.8-1.5,3-1.5,2.5.5,5.1,1.6c2.6,1,5.5,1.6,8.7,1.6,5.9,0,11.6-2,17.2-5.9,5.6-3.9,9.2-9.3,10.8-16.2,1.6-6.9,2.4-17.2,2.4-30.9,0-49.1-.1-76.4-.4-81.9s-4.2-8.9-11.7-10.1-11.3-3.7-11.3-7.5,2.7-5.9,8-5.9,5,.3,9.7.9c4.7.6,8.5.9,11.6.9s4.7-.3,7.2-.9c2.5-.6,4.3-.9,5.3-.9h0Z"/>
        <path class="cls-1" d="M1155.2,152.4l.6,4.4c.5,0,3-5,7.4-14.9s8.8-17,13.1-21.2c4.3-4.2,8.8-6.3,13.4-6.3s6.3.6,8.1,1.9c1.8,1.3,2.8,2.7,2.8,4.3,0,2.7-.6,4.9-1.9,6.6-1.3,1.6-3.5,3.7-6.6,6.1-13.3,10.1-23,22.4-28.9,36.9s-8.9,26.5-8.9,36.1.6,7.5,1.8,9.1c1.2,1.6,4.1,3,8.7,4.1s7.6,2.3,8.9,3.6c1.4,1.3,2,2.8,2,4.5,0,3.1-1.8,4.6-5.5,4.6s-7-.5-12.2-1.4c-5.2-.9-10.8-1.4-16.8-1.4s-8,.5-12.1,1.4-6.7,1.4-7.9,1.4c-2.9,0-5.3-.6-7.1-1.7-1.8-1.1-2.7-2.5-2.7-4.2s.5-2.4,1.5-3.4,3.8-2.3,8.4-3.9c4.6-1.6,7.4-3.1,8.5-4.7,1-1.6,1.6-6.4,1.6-14.7v-47.6c0-3-.7-5.7-2.1-8.1-1.4-2.4-4.2-4.2-8.5-5.5s-6.8-2.4-7.5-3.4c-.8-1-1.2-2-1.2-3.2,0-3.5,2.5-5.3,7.4-5.3s3.7.3,6.8.8,5.4.8,6.7.8,2.8-.2,5.1-.6,5.2-.6,8.4-.6c5.7,0,8.5,6,8.5,18v7.7h0Z"/>
        <path class="cls-1" d="M1306.8,167c2.4,0,4-.4,4.9-1.2s1.3-2.3,1.3-4.5c0-8-3.1-15.5-9.3-22.4-6.2-7-15.6-10.4-28.2-10.4s-17.7,4.1-26.9,12.4-13.9,19.9-13.9,35.1,4.9,21,14.7,29.9,20.7,13.2,32.8,13.2,19.1-2.9,29.8-8.6c4.1-2.2,6.7-3.3,8-3.3,1.9,0,3.4.5,4.5,1.6s1.7,2.4,1.7,4c0,3.8-5.8,8.4-17.3,13.9-11.6,5.4-23.5,8.2-35.7,8.2-18.1,0-33.3-6.2-45.7-18.5-12.3-12.4-18.5-27.1-18.5-44.1s6.8-28.9,20.3-40c13.6-11.1,28.8-16.6,45.6-16.6s38.2,5.6,49.1,16.8c10.9,11.2,16.3,24.6,16.3,40.2s-.8,5.4-2.5,6.2-4.8,1.2-9.2,1.2h-71.9c-5.8,0-8.8-2.2-8.8-6.5s3-6.2,9.1-6.2h50.1Z"/>
        <path class="cls-1" d="M375.1,271.6c0-1.1-.3-1.9-1-2.5s-1.3-.9-1.9-.9c-1.8,0-2.7-.6-2.7-1.7s.6-2,1.9-2,1.1.1,2.1.3c1,.2,1.8.3,2.4.3s1.5,0,2.2-.3c.8-.2,1.3-.3,1.6-.3.8,0,1.4.2,1.6.6.3.4.5,2,.6,4.9s.2,6.2.2,10v7.8c0,1.4,0,2.2.2,2.6.2.4.5.7,1.1,1,.5.3,1.2.5,2,.6s1.3.2,1.6.4c.3.2.5.6.5,1.2,0,1.1-.8,1.6-2.3,1.6s-2.2-.1-3.4-.3c-1.1-.2-2.3-.3-3.4-.3s-2,.1-3.3.3c-1.3.2-2.3.3-3,.3-1.7,0-2.5-.5-2.5-1.5s.2-1.2.5-1.4.9-.4,1.7-.5,1.5-.3,2-.7c.5-.4.9-.9,1-1.5s.2-1.8.2-3.7v-14.7h0ZM395.6,271.5c0-.7-.3-1.2-.9-1.7s-1.2-.7-1.9-.7c-1.5,0-3.3.9-5.3,2.5-1.2,1-2.1,1.6-2.6,1.6-.8,0-1.2-.3-1.2-1,0-1.5,1.4-3.3,4.2-5.3,2.8-2,5.3-3,7.6-3s3.6.7,5,2,2.2,3,2.2,4.8v18.2c0,.9.2,1.7.9,2.3s1.4.9,2.2.9c1.5,0,2.3.6,2.3,1.8s-.8,1.6-2.4,1.6-1.1-.1-2.7-.3c-1.6-.2-3-.3-4-.3-1.8,0-3.3.1-4.5.3-1.2.2-2,.3-2.4.3-.5,0-1-.2-1.4-.5-.4-.4-.6-.8-.6-1.4,0-.9.5-1.3,1.6-1.3s1.9-.3,2.7-.9c.8-.6,1.3-1.5,1.3-2.8v-17.3h0ZM416.1,271.5c0-.7-.3-1.2-.9-1.7s-1.2-.7-1.9-.7c-1.2,0-2.7.7-4.4,2-1.8,1.4-2.9,2-3.5,2s-.7-.1-1-.3c-.3-.2-.4-.5-.4-.8,0-1.4,1.3-3,4-5.1,2.6-2,5.3-3.1,8-3.1s5.4,1.3,6.5,4c.4.8.6,5.2.6,13.3v7.6c0,1,.2,1.7.7,2.2s1.3.8,2.3,1,1.7.5,1.9.8.3.6.3,1c0,1.1-.7,1.7-2.2,1.7s-1.1-.1-2.7-.3-3-.3-4.1-.3-2.3.1-3.6.3-2.4.3-3.3.3-1-.2-1.4-.5c-.4-.4-.6-.8-.6-1.3,0-.9.7-1.5,2.1-1.6s2.3-.5,2.8-1.1.7-1.4.7-2.2v-17.3h0Z"/>
        <path class="cls-1" d="M465,287.4c0,2.2,1.4,3.6,4.3,4.5.7.2,1.2.5,1.6.7.3.3.5.8.5,1.5s-.2.7-.7,1c-.5.3-1,.4-1.5.4s-1.3-.1-2.3-.4c-1-.3-1.8-.4-2.4-.4s-1.6.1-2.6.4-1.8.4-2.1.4-.8-.1-1.2-.5c-.4-.3-.6-.6-.6-.9,0-.5-.1-.7-.5-.7s-.5.1-.8.3c-3.4,2.1-7,3.1-11,3.1s-3.9-.5-6.2-1.4-4.1-2.4-5.5-4.4-2.1-4.5-2.1-7.4,1.5-5.9,4.5-8.3c3-2.4,6.8-3.6,11.5-3.6s3.3.4,5.2,1.3c1.9.9,2.9,1.8,2.9,2.7s-.2.8-.6,1.1c-.4.3-.9.4-1.4.4s-1.1-.3-2.3-.8-2.3-.8-3.5-.8c-2.5,0-4.5.7-6.1,2.2-1.6,1.5-2.4,3.4-2.4,5.8s.9,5,2.8,6.5c1.9,1.5,4,2.3,6.4,2.3s4.2-.7,6-2.2c1.8-1.4,2.8-3.4,2.8-5.8v-12.2c0-1.8-.6-3.3-1.8-4.5-1.2-1.1-2.8-1.7-4.9-1.7s-5.1.8-7.6,2.5c-.8.6-1.4.9-1.7.9-.7,0-1.3-.2-1.8-.6s-.8-.9-.8-1.5c0-1.5,1.3-2.7,4-3.7,2.7-1,5.6-1.5,8.8-1.5s7.1,1,9.5,3c2.4,2,3.6,4.3,3.6,7v15.1h0Z"/>
        <path class="cls-1" d="M482.7,269.7c0,.7.3,1.4,1,2.1.6.7,2.7,2,6.2,3.8,3.5,1.8,5.8,3.6,7,5.4,1.2,1.8,1.8,3.6,1.8,5.6,0,3-1.3,5.5-3.8,7.2s-5.8,2.7-9.8,2.7-4.4-.5-6.6-1.5-3.3-2-3.3-3,0-1.8-.2-3-.2-2.1-.2-2.9c0-1.5.7-2.2,2-2.2s.8.2,1.1.5.9,1.4,1.6,3.3c.7,1.9,1.6,3.2,2.6,3.8,1,.7,2.2,1,3.5,1s2.9-.5,4-1.6c1.1-1,1.6-2.4,1.6-4s-.4-2.1-1.1-3-2.8-2.2-6.1-3.8c-3.3-1.6-5.5-3.1-6.5-4.6-1-1.5-1.5-3.1-1.5-4.9s1.1-4.3,3.3-5.9c2.2-1.6,4.7-2.4,7.6-2.4s4.7.4,7,1.2,3.4,1.7,3.4,2.7,0,1.3.2,2.1.2,1.5.2,2-.2,1.2-.5,1.7-.7.7-1.2.7c-.7,0-1.2-.2-1.5-.5-.3-.4-.5-1-.8-1.8-.2-.9-.6-1.6-1.2-2.1-.5-.5-1.2-1-2.1-1.4-.9-.4-1.9-.6-3-.6s-2.1.4-3.1,1.1c-1,.7-1.5,1.5-1.5,2.3h0Z"/>
        <path class="cls-1" d="M535,289.1c.8,0,1.3.7,1.3,2.1s-1.5,2-4.5,3.5c-3,1.4-6.2,2.1-9.5,2.1-5.5,0-10.1-1.7-14-5s-5.9-7.5-5.9-12.5,1.8-8.4,5.5-11.8,8.1-5.1,13.2-5.1,5.9.6,9.4,1.7c3.5,1.1,5.3,2.2,5.3,3.1,0,1.7,0,3,.3,4.1s.3,1.6.3,1.8c0,1.3-.6,2-1.9,2s-1.7-.9-2.2-2.7c-.5-1.8-1.6-3.2-3.3-4.3s-3.8-1.6-6.2-1.6-6,1.1-8.6,3.4c-2.6,2.3-4,5.5-4,9.7s1.5,7,4.5,9.5c3,2.5,6.1,3.7,9.3,3.7s2.4-.1,3.7-.5c1.3-.3,2.7-.9,4.2-1.8,1.5-.9,2.7-1.4,3.3-1.4h0Z"/>
        <path class="cls-1" d="M558.7,262.6c5,0,9.3,1.7,13,5.1s5.5,7.4,5.5,11.8-1.8,9.1-5.3,12.2c-3.5,3.1-8.3,4.7-14.2,4.7s-8.9-1.6-12.6-4.8-5.6-7.2-5.6-12,1.6-8.5,4.9-12c3.3-3.4,8-5.1,14.2-5.1h0ZM558.8,292.6c3.5,0,6.2-1.2,8.2-3.7,2-2.5,3.1-5.6,3.1-9.4s-1.1-6.8-3.3-9.2c-2.2-2.4-5-3.6-8.4-3.6s-6.2,1.2-8.1,3.5c-1.9,2.4-2.9,5.4-2.9,9.1s1.1,7.4,3.2,9.8c2.1,2.4,4.8,3.6,8.1,3.6h0Z"/>
        <path class="cls-1" d="M593.6,285.1c0,2.5.1,4.1.4,4.8.2.7.7,1.1,1.3,1.1,1,0,2.2-.5,3.6-1.6s2.4-1.6,2.9-1.6.8.2,1.1.5.5.8.5,1.3c0,.9-1.2,2.2-3.5,4.2s-4.4,2.9-6.2,2.9c-4.7,0-7.1-3.5-7.1-10.4v-17.3c0-.6,0-.9-.2-.9-.2,0-1,0-2.5,0s-2-.2-2.4-.5c-.4-.4-.6-.9-.6-1.5s.2-1,.5-1.2c.3-.2.9-.5,1.8-.8.9-.2,1.6-.5,2.1-.9s1.2-1.1,2.1-2.2c.9-1.1,1.5-2.6,1.9-4.6.4-2,.6-4.8.6-8.5s.5-2.6,1.5-2.6,1.8.2,2,.7c.3.5.4,1.3.4,2.5v15c0,.6.4.9,1.2.9h6.4c1.3,0,1.9.6,1.9,1.7s-.9,2-2.8,2h-5.6c-.4,0-.7,0-.8.2s-.1.5-.1,1v16h0Z"/>
        <path class="cls-1" d="M640.4,287.4c0,2.2,1.4,3.6,4.3,4.5.7.2,1.2.5,1.6.7.3.3.5.8.5,1.5s-.2.7-.7,1c-.5.3-1,.4-1.5.4s-1.3-.1-2.3-.4c-1-.3-1.8-.4-2.4-.4s-1.6.1-2.6.4-1.8.4-2.1.4-.8-.1-1.2-.5c-.4-.3-.6-.6-.6-.9,0-.5-.2-.7-.5-.7s-.5.1-.8.3c-3.4,2.1-7,3.1-11,3.1s-3.9-.5-6.2-1.4-4.1-2.4-5.5-4.4-2.1-4.5-2.1-7.4,1.5-5.9,4.5-8.3c3-2.4,6.8-3.6,11.5-3.6s3.3.4,5.2,1.3c1.9.9,2.8,1.8,2.8,2.7s-.2.8-.6,1.1c-.4.3-.9.4-1.4.4s-1.2-.3-2.3-.8c-1.1-.5-2.3-.8-3.5-.8-2.5,0-4.5.7-6.1,2.2-1.6,1.5-2.4,3.4-2.4,5.8s.9,5,2.8,6.5,4,2.3,6.4,2.3,4.2-.7,6-2.2c1.8-1.4,2.8-3.4,2.8-5.8v-12.2c0-1.8-.6-3.3-1.8-4.5s-2.8-1.7-4.9-1.7-5.1.8-7.6,2.5c-.8.6-1.4.9-1.7.9-.7,0-1.3-.2-1.8-.6s-.8-.9-.8-1.5c0-1.5,1.3-2.7,4-3.7,2.7-1,5.6-1.5,8.8-1.5s7.1,1,9.5,3c2.4,2,3.6,4.3,3.6,7v15.1h0Z"/>
        <path class="cls-1" d="M658,269.7c0,.7.3,1.4,1,2.1.6.7,2.7,2,6.2,3.8,3.5,1.8,5.8,3.6,7,5.4,1.2,1.8,1.8,3.6,1.8,5.6,0,3-1.3,5.5-3.8,7.2-2.5,1.8-5.8,2.7-9.8,2.7s-4.4-.5-6.6-1.5-3.3-2-3.3-3,0-1.8-.2-3-.2-2.1-.2-2.9c0-1.5.7-2.2,2-2.2s.8.2,1.1.5.9,1.4,1.6,3.3,1.6,3.2,2.6,3.8c1,.7,2.2,1,3.5,1s2.9-.5,4-1.6c1.1-1,1.7-2.4,1.7-4s-.4-2.1-1.1-3-2.8-2.2-6.1-3.8c-3.3-1.6-5.5-3.1-6.5-4.6-1-1.5-1.5-3.1-1.5-4.9s1.1-4.3,3.3-5.9c2.2-1.6,4.7-2.4,7.6-2.4s4.7.4,7,1.2,3.4,1.7,3.4,2.7,0,1.3.2,2.1.2,1.5.2,2-.2,1.2-.5,1.7-.7.7-1.2.7c-.7,0-1.2-.2-1.5-.5-.3-.4-.5-1-.8-1.8-.2-.9-.6-1.6-1.2-2.1-.5-.5-1.2-1-2.1-1.4-.9-.4-1.9-.6-3-.6s-2.2.4-3.2,1.1c-1,.7-1.5,1.5-1.5,2.3h0Z"/>
        <path class="cls-1" d="M717.5,289.5c.8,0,1.2.4,1.2,1.1s-1.2,2.1-3.6,3.5-4.8,2.1-7.1,2.1-3.3-.5-5.2-1.6c-1.8-1.1-3-2.5-3.5-4.1-.5-1.6-.7-4.6-.7-8.8v-9c0-2.4-1-3.9-3.1-4.3-1.3-.2-2.1-.5-2.4-.7-.3-.2-.5-.7-.5-1.3s.1-.9.4-1.2c.3-.4.6-.5,1.1-.5s1.3.1,2.6.4,2.1.4,2.5.4,1.3-.1,2.6-.4,2.2-.4,2.5-.4.5.1.8.3c.3.2.5.4.5.7s.1,2.3.2,6.2.1,7.5.1,10.8,0,4.3.3,5.5c.2,1.1.7,2,1.7,2.7.9.7,2.2,1,3.7,1s2.4-.4,3.6-1.1c1.2-.8,2.1-1.1,2.5-1.1h0ZM725.9,264.5c1,0,1.6.7,1.6,2.2,0,2.9,0,7.1.1,12.7s.1,9.3.1,11.2c0,6.7-.8,11.5-2.3,14.4s-3.2,4.9-5,6-4,1.7-6.6,1.7-3.9-.3-5.2-.9-1.9-1.2-1.9-1.7.1-.5.4-.8.5-.4.8-.4.7.1,1.5.5c.7.3,1.6.5,2.5.5,1.7,0,3.3-.6,4.9-1.7s2.6-2.7,3.1-4.6c.5-2,.7-4.9.7-8.8,0-14.1,0-21.9-.1-23.5,0-1.6-1.2-2.5-3.3-2.9-2.2-.3-3.2-1.1-3.2-2.2s.8-1.7,2.3-1.7,1.4,0,2.8.3c1.3.2,2.4.3,3.3.3s1.3,0,2.1-.3c.7-.2,1.2-.3,1.5-.3h0Z"/>
        <path class="cls-1" d="M784.3,289.1c.8,0,1.3.7,1.3,2.1s-1.5,2-4.5,3.5c-3,1.4-6.2,2.1-9.5,2.1-5.5,0-10.1-1.7-14-5s-5.8-7.5-5.8-12.5,1.8-8.4,5.5-11.8,8.1-5.1,13.2-5.1,5.9.6,9.4,1.7c3.5,1.1,5.3,2.2,5.3,3.1,0,1.7,0,3,.3,4.1s.3,1.6.3,1.8c0,1.3-.6,2-1.9,2s-1.7-.9-2.2-2.7c-.5-1.8-1.6-3.2-3.3-4.3s-3.8-1.6-6.2-1.6-6,1.1-8.6,3.4c-2.7,2.3-4,5.5-4,9.7s1.5,7,4.5,9.5c3,2.5,6.1,3.7,9.3,3.7s2.4-.1,3.7-.5c1.3-.3,2.7-.9,4.2-1.8,1.5-.9,2.7-1.4,3.3-1.4h0Z"/>
        <path class="cls-1" d="M821.9,287.4c0,2.2,1.4,3.6,4.3,4.5.7.2,1.2.5,1.6.7.3.3.5.8.5,1.5s-.2.7-.7,1-1,.4-1.5.4-1.3-.1-2.3-.4c-1-.3-1.8-.4-2.4-.4s-1.6.1-2.6.4-1.8.4-2.1.4-.8-.1-1.2-.5c-.4-.3-.6-.6-.6-.9,0-.5-.2-.7-.5-.7s-.5.1-.8.3c-3.4,2.1-7,3.1-11,3.1s-3.9-.5-6.2-1.4-4.1-2.4-5.5-4.4-2.1-4.5-2.1-7.4,1.5-5.9,4.5-8.3c3-2.4,6.8-3.6,11.5-3.6s3.3.4,5.2,1.3c1.9.9,2.8,1.8,2.8,2.7s-.2.8-.6,1.1c-.4.3-.9.4-1.4.4s-1.2-.3-2.3-.8c-1.1-.5-2.3-.8-3.5-.8-2.5,0-4.5.7-6.1,2.2-1.6,1.5-2.4,3.4-2.4,5.8s.9,5,2.8,6.5,4,2.3,6.4,2.3,4.2-.7,6-2.2c1.8-1.4,2.8-3.4,2.8-5.8v-12.2c0-1.8-.6-3.3-1.8-4.5s-2.8-1.7-4.9-1.7-5.1.8-7.6,2.5c-.8.6-1.4.9-1.7.9-.7,0-1.3-.2-1.8-.6s-.8-.9-.8-1.5c0-1.5,1.3-2.7,4-3.7,2.7-1,5.6-1.5,8.8-1.5s7.1,1,9.5,3c2.4,2,3.6,4.3,3.6,7v15.1h0Z"/>
        <path class="cls-1" d="M838,271.6c0-1.1-.3-1.9-1-2.5-.7-.6-1.3-.9-1.9-.9-1.8,0-2.7-.6-2.7-1.7s.7-2,1.9-2,1.1.1,2.1.3,1.8.3,2.4.3,1.5,0,2.2-.3c.8-.2,1.3-.3,1.6-.3.8,0,1.3.2,1.6.6.3.4.5,2,.6,4.9.1,2.9.2,6.2.2,10v7.8c0,1.4,0,2.2.2,2.6.2.4.5.7,1.1,1,.5.3,1.2.5,2,.6s1.3.2,1.6.4c.3.2.5.6.5,1.2,0,1.1-.8,1.6-2.3,1.6s-2.2-.1-3.4-.3c-1.1-.2-2.3-.3-3.4-.3s-2,.1-3.3.3c-1.3.2-2.3.3-3,.3-1.7,0-2.5-.5-2.5-1.5s.2-1.2.5-1.4c.3-.2.9-.4,1.7-.5.8-.1,1.5-.3,2-.7.5-.4.8-.9,1-1.5.1-.6.2-1.8.2-3.7v-14.7h0ZM858.5,271.5c0-.7-.3-1.2-.9-1.7s-1.2-.7-1.9-.7c-1.5,0-3.3.9-5.3,2.5-1.2,1-2.1,1.6-2.6,1.6-.8,0-1.2-.3-1.2-1,0-1.5,1.4-3.3,4.2-5.3,2.8-2,5.3-3,7.6-3s3.6.7,5,2c1.4,1.4,2.2,3,2.2,4.8v18.2c0,.9.2,1.7.8,2.3.6.6,1.4.9,2.2.9,1.5,0,2.3.6,2.3,1.8s-.8,1.6-2.4,1.6-1.1-.1-2.7-.3-3-.3-4-.3c-1.8,0-3.3.1-4.5.3s-2,.3-2.4.3c-.5,0-1-.2-1.4-.5-.4-.4-.6-.8-.6-1.4,0-.9.5-1.3,1.6-1.3s1.9-.3,2.7-.9c.8-.6,1.3-1.5,1.3-2.8v-17.3h0ZM879.1,271.5c0-.7-.3-1.2-.9-1.7s-1.2-.7-1.9-.7c-1.2,0-2.7.7-4.4,2-1.8,1.4-2.9,2-3.5,2s-.7-.1-1-.3c-.3-.2-.4-.5-.4-.8,0-1.4,1.3-3,4-5.1,2.6-2,5.3-3.1,8-3.1s5.3,1.3,6.5,4c.4.8.6,5.2.6,13.3v7.6c0,1,.2,1.7.7,2.2s1.3.8,2.3,1c1,.2,1.7.5,1.9.8s.3.6.3,1c0,1.1-.7,1.7-2.2,1.7s-1.1-.1-2.7-.3-3-.3-4.1-.3-2.3.1-3.6.3-2.4.3-3.3.3-1-.2-1.4-.5c-.4-.4-.6-.8-.6-1.3,0-.9.7-1.5,2.1-1.6,1.4-.1,2.3-.5,2.8-1.1s.7-1.4.7-2.2v-17.3h0Z"/>
        <path class="cls-1" d="M901.6,302.1c.2-1.7.3-6.4.3-14.2s0-9.2-.3-16.4c0-.8-.4-1.4-.9-2-.6-.5-1.7-1-3.5-1.3-1.3-.2-2.2-.5-2.6-.8s-.6-.7-.6-1.1c0-1.2.9-1.8,2.8-1.8s1.2.1,2.7.4c1.4.3,2.3.4,2.7.4s1.2-.2,2.4-.5c1.2-.3,2-.5,2.3-.5.8,0,1.3.2,1.5.5.2.4.3.9.3,1.7v15.9c0,3.2,1,5.8,3.1,7.7s4.4,2.9,7.2,2.9,3-.6,5.1-1.7c2-1.1,3.7-2.8,4.8-5s1.7-4.6,1.7-7.4-1-6.2-3-8.7c-2-2.5-4.3-3.8-7-3.8s-3,.3-4.4.9c-1.3.6-2.2.9-2.6.9s-.8-.1-1.1-.4-.5-.6-.5-1c0-.9,1.1-1.8,3.3-2.7,2.2-.9,4.1-1.4,5.7-1.4,4.8,0,8.9,1.5,12.2,4.6s4.9,7.3,4.9,12.6-1.7,7.9-5.1,11.3c-3.4,3.5-7.5,5.2-12.2,5.2s-3.5-.2-5.2-.7c-1.6-.5-3.8-1.6-6.4-3.3-.2,0-.4.8-.4,2.3,0,3.8-.3,6.7-.8,8.7-.5,2-1.4,3.7-2.6,5.2-1.2,1.5-2.4,2.5-3.6,3.1s-2.3.9-3.5.9c-1.7,0-2.5-.4-2.5-1.2s.4-.7,1.1-1.1c1.8-1,3-2.3,3.7-3.8s1-3,1-4.4h0Z"/>
        <path class="cls-1" d="M959.8,262.6c5,0,9.3,1.7,13,5.1s5.5,7.4,5.5,11.8-1.8,9.1-5.3,12.2c-3.5,3.1-8.3,4.7-14.2,4.7s-8.9-1.6-12.6-4.8-5.6-7.2-5.6-12,1.6-8.5,4.9-12c3.3-3.4,8-5.1,14.2-5.1h0ZM959.8,292.6c3.5,0,6.2-1.2,8.2-3.7,2-2.5,3.1-5.6,3.1-9.4s-1.1-6.8-3.3-9.2-5-3.6-8.4-3.6-6.2,1.2-8.1,3.5c-1.9,2.4-2.9,5.4-2.9,9.1s1.1,7.4,3.2,9.8,4.8,3.6,8.1,3.6h0Z"/>
        <path class="cls-1" d="M1364.1,90s58.1-7.4,48.4-90c0,0-86.2,5.2-60.9,86.4,0,0,16.1-38.1,33-48.8,0,0-21.1,37.6-20.5,52.4h0Z"/>
        <path class="cls-1" d="M1329.1,109.5s33.9-47.8-33.5-96.6c0,0-54.6,67,22.3,103.4,0,0-17.2-37.6-13.5-57.3,0,0,13.3,41,24.7,50.6h0Z"/>
        <path class="cls-1" d="M1336.5,120.5s35.7-46.5,102.2,3.5c0,0-47.9,71.9-105.3,9.1,0,0,41,5.3,58.8-4,0,0-43.1-.6-55.6-8.7h0Z"/>
      </g>
    </g>
  </g>
</svg>