<?xml version="1.0" encoding="UTF-8"?>
<svg xmlns="http://www.w3.org/2000/svg" version="1.1" viewBox="0 0 288.6 348.1">
  <defs>
    <style>
      .cls-1 {
        fill: #4a4545;
      }

      .cls-2 {
        fill: #267432;
      }
    </style>
  </defs>
  <!-- Generator: Adobe Illustrator 28.7.1, SVG Export Plug-In . SVG Version: 1.2.0 Build 142)  -->
  <g>
    <g id="Layer_2">
      <g id="Layer_1-2">
        <path class="cls-1" d="M88.8,118.9c15.7,0,33.4,4.5,53,13.6,19.6,9.1,35.5,22.6,47.6,40.6,12.1,18,18.2,39,18.2,63s-10.1,59.5-30.1,80.5-46.2,31.6-78.2,31.6l-89-.6c-2.4,0-4.4-.6-6.1-1.8-1.7-1.2-2.5-2.9-2.5-5s.6-3.3,1.7-4.4c1.1-1.2,4.3-2,9.4-2.6,5.1-.6,8.4-1.7,9.8-3.3,1.4-1.6,2.1-3.6,2.1-6v-178.2c0-4.7-.8-8.1-2.3-10.2s-3.1-3.3-4.9-3.7c-1.7-.4-5.1-.6-10-.6s-5.1-.5-6.1-1.5C.5,129.1,0,127.5,0,125.4c0-4.3,3.4-6.5,10.4-6.5h78.5ZM51.3,315.6c0,6.1,2.8,10.7,8.3,13.9,5.6,3.2,15.8,4.9,30.7,4.9s28.4-2.1,36.7-6.3c14.1-7.2,25.5-18.6,34.2-34.3s13.1-31.6,13.1-47.6-1.2-27-3.5-39.3-6.6-23.3-12.8-33.2c-6.1-9.9-15.4-19.2-27.8-28-12.4-8.8-28.8-13.2-49.4-13.2s-29.6,4.3-29.6,12.9v170.2h0Z"/>
        <path class="cls-1" d="M214,93.5s58.1-7.4,48.4-90c0,0-86.2,5.2-60.9,86.4,0,0,16.1-38.1,33-48.8,0,0-21.1,37.6-20.5,52.4h0Z"/>
        <path class="cls-2" d="M179,113s33.9-47.8-33.5-96.6c0,0-54.6,67,22.3,103.4,0,0-17.2-37.6-13.5-57.3,0,0,13.3,41,24.7,50.6h0Z"/>
        <path class="cls-1" d="M186.4,124s35.7-46.5,102.2,3.5c0,0-47.9,71.9-105.3,9.1,0,0,41,5.3,58.8-4,0,0-43.1-.6-55.6-8.7h0Z"/>
      </g>
    </g>
  </g>
</svg>