<?xml version="1.0" encoding="UTF-8"?><svg id="Layer_2" xmlns="http://www.w3.org/2000/svg" viewBox="0 0 1438.64 312.8"><defs><style>.cls-1{fill:#4a4545;}.cls-2{fill:#267432;}</style></defs><g id="Layer_1-2"><path class="cls-1" d="M88.85,1.54c15.7,0,33.36,4.53,52.98,13.58,19.62,9.05,35.5,22.58,47.64,40.58,12.14,18,18.21,38.98,18.21,62.95,0,32.65-10.05,59.49-30.14,80.53s-46.15,31.55-78.17,31.55l-89-.63c-2.41,0-4.45-.61-6.12-1.83-1.68-1.22-2.51-2.88-2.51-5,0-1.8.57-3.28,1.73-4.45,1.15-1.16,4.29-2.03,9.42-2.61,5.13-.57,8.4-1.67,9.81-3.29,1.41-1.62,2.12-3.63,2.12-6.04V28.67c0-4.7-.76-8.1-2.28-10.19-1.52-2.09-3.14-3.32-4.87-3.68-1.73-.37-5.05-.55-9.97-.55-3.04,0-5.08-.5-6.12-1.51-1.05-1.01-1.57-2.57-1.57-4.69C0,3.71,3.45,1.54,10.36,1.54h78.49ZM51.33,198.25c0,6.06,2.78,10.71,8.34,13.95,5.56,3.24,15.79,4.86,30.69,4.86,16.16,0,28.38-2.09,36.67-6.27,14.06-7.21,25.47-18.65,34.23-34.32s13.14-31.55,13.14-47.65c0-13.9-1.18-26.98-3.54-39.26-2.36-12.28-6.61-23.35-12.75-33.23-6.14-9.87-15.4-19.2-27.78-27.98-12.38-8.78-28.85-13.17-49.41-13.17s-29.59,4.29-29.59,12.85v170.21Z"/><path class="cls-1" d="M313.79,166.99c2.41,0,4.03-.42,4.87-1.25.84-.83,1.26-2.33,1.26-4.52,0-7.99-3.11-15.46-9.34-22.42-6.23-6.96-15.62-10.43-28.18-10.43-8.69,0-17.66,4.13-26.92,12.38-9.26,8.25-13.89,19.95-13.89,35.1,0,11.08,4.88,21.03,14.65,29.85s20.71,13.24,32.83,13.24c9.19,0,19.12-2.88,29.77-8.63,4.07-2.2,6.74-3.3,7.99-3.3,1.88,0,3.37.53,4.47,1.59,1.1,1.06,1.65,2.39,1.65,3.98,0,3.82-5.78,8.45-17.35,13.89-11.56,5.44-23.47,8.16-35.71,8.16-18.11,0-33.33-6.18-45.68-18.52-12.35-12.35-18.52-27.05-18.52-44.11,0-15.59,6.77-28.93,20.33-40.03,13.55-11.09,28.75-16.64,45.6-16.64,21.87,0,38.25,5.6,49.13,16.8,10.88,11.2,16.33,24.59,16.33,40.19,0,3.35-.84,5.42-2.51,6.2s-4.75,1.18-9.24,1.18h-71.93c-5.85,0-8.78-2.17-8.78-6.52s3.03-6.2,9.1-6.2h50.07Z"/><path class="cls-1" d="M404.51,223.18c-.63.63-1.26,1.7-1.88,3.22s-1.39,2.64-2.28,3.38c-.89.73-2.49,1.1-4.79,1.1-1.78,0-4.58-.45-8.4-1.33-3.82-.89-6.83-1.33-9.03-1.33s-5.26.44-9.18,1.33c-3.92.89-6.88,1.33-8.87,1.33-2.41,0-4.5-.61-6.28-1.83-1.78-1.22-2.67-2.89-2.67-5.01,0-1.38.52-2.54,1.56-3.5,1.04-.95,4.66-2.06,10.85-3.31,6.19-1.25,10.41-3.66,12.64-7.21s3.36-7.79,3.36-12.7V36.2c0-8.67-2.03-14.73-6.09-18.18-2.29-1.98-5.96-3.34-11.01-4.07-5.05-.73-8.09-1.71-9.13-2.93-1.04-1.22-1.56-2.68-1.56-4.38s1.02-3.1,3.06-4.21c2.04-1.11,4-1.67,5.89-1.67,2.09,0,5.18.45,9.26,1.33,4.08.89,7.12,1.33,9.1,1.33,1.88,0,4.55-.34,8.01-1.02,3.45-.68,6.02-1.02,7.69-1.02,3.14,0,5.44.87,6.91,2.59,1.46,1.73,2.2,4.95,2.2,9.66v183.64c0,6.5,3.99,12.28,11.98,17.35,7.99,5.08,15.53,7.61,22.64,7.61,8.15,0,16.76-3.45,25.85-10.36,9.08-6.91,13.63-18.37,13.63-34.38,0-12.45-3.6-23.1-10.81-31.94-7.2-8.84-16.55-13.26-28.03-13.26-4.39,0-8.9,1.2-13.55,3.61-4.65,2.41-7.7,3.61-9.16,3.61-1.25,0-2.53-.55-3.84-1.65-1.31-1.1-1.96-2.17-1.96-3.22,0-4.71,4.02-8.84,12.06-12.4,8.04-3.56,15.15-5.34,21.31-5.34,17.13,0,31.42,6.15,42.86,18.44,11.44,12.3,17.16,27.29,17.16,44.97,0,16.22-5.98,29.59-17.95,40.11-11.96,10.52-26.41,15.78-43.33,15.78-8.57,0-19.43-3.44-32.6-10.33l-5.64-2.7Z"/><path class="cls-1" d="M580.01,115.03c17.37,0,32.52,5.96,45.44,17.9,12.92,11.93,19.39,25.69,19.39,41.28,0,17.48-6.18,31.71-18.52,42.7-12.35,10.99-28.88,16.48-49.6,16.48-16.32,0-31-5.6-44.03-16.8-13.03-11.2-19.54-25.12-19.54-41.75s5.73-29.85,17.19-41.83c11.46-11.98,28.02-17.97,49.68-17.97ZM580.17,219.57c12.03,0,21.63-4.34,28.8-13.03,7.17-8.69,10.75-19.67,10.75-32.96s-3.85-23.81-11.54-32.18c-7.69-8.37-17.45-12.56-29.27-12.56s-21.56,4.11-28.25,12.32c-6.7,8.22-10.05,18.81-10.05,31.79,0,14.34,3.71,25.69,11.15,34.06,7.43,8.37,16.9,12.56,28.41,12.56Z"/><path class="cls-1" d="M677.49,146.4c0-3.86-.76-6.76-2.28-8.69-1.52-1.93-4.68-3.32-9.5-4.15-4.82-.83-7.22-3-7.22-6.5,0-1.48.84-2.94,2.52-4.37,1.68-1.43,3.88-2.15,6.62-2.15,1.16,0,3.18.37,6.07,1.1,2.89.73,5.28,1.1,7.17,1.1,1.16,0,3.81-.31,7.96-.94,4.15-.63,6.75-.94,7.8-.94,2.1,0,3.57.86,4.41,2.59.84,1.73,1.31,5.21,1.42,10.44.21,8.69.31,17.95.31,27.78l-.94,44.74c0,3.25.26,5.23.79,5.96.52.73,1.75,1.67,3.69,2.83,1.94,1.15,4.42,2.04,7.46,2.67,3.03.63,4.97,1.5,5.81,2.61.84,1.12,1.26,2.42,1.26,3.9,0,3.5-2.73,5.26-8.18,5.26-3.78,0-7.66-.34-11.65-1.02-3.99-.68-7.92-1.02-11.8-1.02-3.15,0-7.21.29-12.2.86-4.98.57-8.68.86-11.09.86-5.35,0-8.02-1.96-8.02-5.89,0-1.7.47-3.07,1.41-4.13.94-1.06,2.98-1.7,6.12-1.91,3.56-.21,5.75-.73,6.59-1.57,2.41-2.51,3.92-4.7,4.55-6.58.63-1.88.94-5.74.94-11.59v-51.24ZM773.71,206.7c0,4.5.76,7.46,2.28,8.87,1.52,1.41,4.24,2.57,8.16,3.45,3.92.89,5.89,2.56,5.89,5.01,0,3.31-1.94,4.96-5.82,4.96-.74,0-3.88-.18-9.44-.55-5.56-.37-10.23-.55-14.01-.55-6.29,0-11.59.39-15.89,1.18-4.3.78-7.08,1.18-8.34,1.18-1.89,0-3.65-.64-5.27-1.91s-2.44-2.81-2.44-4.61c0-1.38.68-2.68,2.04-3.89,1.36-1.22,2.93-1.83,4.71-1.83,3.35,0,6.33-.96,8.95-2.9,2.61-1.93,3.92-4.83,3.92-8.7,0-25.17.16-40.76.47-46.76.31-6,.47-9.37.47-10.1,0-8.15-3.74-12.22-11.22-12.22-3.22,0-7.82,2.46-13.79,7.38-5.97,4.92-10.21,7.38-12.7,7.38-.83,0-1.77-.53-2.8-1.59-1.04-1.06-1.56-2.18-1.56-3.35,0-3.72,4.8-9.34,14.41-16.88,9.6-7.53,19-11.3,28.19-11.3,5.43,0,10.12,1.39,14.09,4.16,3.97,2.77,6.61,6.25,7.91,10.44,1.3,4.19,1.96,10.1,1.96,17.74l-.16,10.05v45.36Z"/><path class="cls-1" d="M920.16,201.7c0,7.52,5.02,12.75,15.07,15.67,2.51.74,4.37,1.59,5.57,2.54,1.2.95,1.8,2.75,1.8,5.4,0,1.38-.81,2.57-2.43,3.58-1.62,1-3.38,1.51-5.26,1.51-1.99,0-4.68-.47-8.08-1.41-3.4-.94-6.15-1.41-8.24-1.41-2.41,0-5.44.47-9.1,1.41-3.67.94-6.12,1.41-7.38,1.41-1.47,0-2.9-.53-4.32-1.57-1.41-1.04-2.12-2.09-2.12-3.14,0-1.67-.53-2.51-1.57-2.51-.73,0-1.67.37-2.83,1.1-11.83,7.32-24.59,10.99-38.3,10.99-6.49,0-13.74-1.68-21.74-5.02-8.01-3.35-14.42-8.5-19.23-15.46-4.81-6.96-7.22-15.56-7.22-25.82,0-10.88,5.2-20.51,15.59-28.88,10.39-8.37,23.79-12.56,40.19-12.56,5.54,0,11.62,1.55,18.25,4.63,6.63,3.09,9.95,6.25,9.95,9.5,0,1.57-.68,2.83-2.04,3.77-1.36.94-3.04,1.41-5.02,1.41-1.36,0-4.03-.94-8.01-2.83-3.98-1.88-8.06-2.83-12.24-2.83-8.58,0-15.7,2.53-21.35,7.59-5.65,5.06-8.48,11.82-8.48,20.27,0,9.81,3.24,17.35,9.73,22.62,6.49,5.27,13.97,7.91,22.45,7.91,7.64,0,14.68-2.51,21.11-7.54,6.44-5.02,9.65-11.72,9.65-20.09v-42.54c0-6.38-2.11-11.56-6.34-15.54-4.23-3.98-9.89-5.97-16.99-5.97-9.08,0-17.9,2.88-26.46,8.63-2.92,1.99-4.91,2.98-5.95,2.98-2.51,0-4.65-.65-6.42-1.96-1.78-1.31-2.66-3.01-2.66-5.1,0-5.13,4.68-9.47,14.05-13.03,9.36-3.56,19.59-5.34,30.69-5.34,13.71,0,24.75,3.45,33.12,10.35,8.37,6.9,12.56,15.1,12.56,24.6v52.66Z"/><path class="cls-1" d="M1040.43,208.9c2.7,0,4.05,1.31,4.05,3.92,0,3.25-4.18,7.27-12.53,12.09-8.35,4.81-16.65,7.22-24.9,7.22-5.64,0-11.69-1.91-18.17-5.72-6.47-3.81-10.52-8.56-12.14-14.26-1.62-5.7-2.43-15.96-2.43-30.8l.31-31.5c0-8.46-3.77-13.48-11.3-15.04-4.39-.85-7.2-1.67-8.4-2.46-1.2-.79-1.81-2.35-1.81-4.68,0-1.69.47-3.15,1.42-4.37.94-1.22,2.21-1.83,3.78-1.83,1.47,0,4.46.5,8.98,1.49,4.51,1,7.4,1.49,8.67,1.49,1.47,0,4.51-.5,9.13-1.49,4.62-.99,7.51-1.49,8.66-1.49.74,0,1.63.37,2.68,1.1s1.65,1.52,1.81,2.35c.16.84.37,8.1.63,21.78s.39,26.28.39,37.77c0,8.78.31,15.12.93,19.04.62,3.92,2.57,7.11,5.85,9.56,3.27,2.46,7.61,3.68,13.02,3.68,4.05,0,8.26-1.31,12.63-3.92,4.37-2.61,7.27-3.92,8.73-3.92ZM1069.73,121.47c3.67,0,5.51,2.57,5.51,7.69,0,10.15.16,24.96.47,44.42.31,19.46.47,32.55.47,39.24,0,23.44-2.73,40.21-8.18,50.31-5.45,10.1-11.3,17.13-17.54,21.11-6.24,3.98-13.87,5.96-22.89,5.96-7.66,0-13.71-1.1-18.17-3.3-4.46-2.2-6.69-4.19-6.69-5.96,0-.84.42-1.75,1.26-2.75.84-1,1.83-1.49,2.98-1.49.84,0,2.54.52,5.1,1.57,2.56,1.04,5.47,1.57,8.71,1.57,5.86,0,11.59-1.96,17.19-5.87,5.6-3.92,9.21-9.32,10.83-16.21,1.62-6.89,2.43-17.18,2.43-30.86,0-49.08-.13-76.39-.39-81.92-.26-5.53-4.16-8.9-11.69-10.1s-11.3-3.71-11.3-7.53,2.68-5.89,8.03-5.89c1.78,0,5.01.31,9.68.94,4.67.63,8.53.94,11.58.94,2.31,0,4.72-.31,7.24-.94,2.52-.63,4.3-.94,5.35-.94Z"/><path class="cls-1" d="M1155.15,152.39l.63,4.4c.52,0,2.98-4.97,7.38-14.91,4.4-9.94,8.75-17,13.06-21.19,4.31-4.18,8.78-6.28,13.41-6.28,3.58,0,6.29.64,8.13,1.9,1.84,1.27,2.76,2.69,2.76,4.27,0,2.74-.63,4.93-1.89,6.57-1.26,1.64-3.46,3.67-6.61,6.09-13.33,10.1-22.97,22.38-28.9,36.85-5.93,14.47-8.9,26.49-8.9,36.07,0,4.48.6,7.52,1.8,9.13,1.2,1.61,4.11,2.97,8.71,4.06,4.6,1.09,7.59,2.28,8.95,3.55,1.36,1.28,2.04,2.76,2.04,4.46,0,3.08-1.84,4.62-5.51,4.62-2.94,0-7-.47-12.2-1.41-5.19-.94-10.78-1.41-16.76-1.41-3.99,0-8.03.47-12.12,1.41-4.09.94-6.71,1.41-7.87,1.41-2.94,0-5.3-.56-7.08-1.67-1.78-1.12-2.67-2.52-2.67-4.22,0-1.27.5-2.41,1.49-3.42.99-1.01,3.79-2.29,8.4-3.85,4.6-1.56,7.43-3.12,8.48-4.68,1.04-1.56,1.57-6.45,1.57-14.67v-47.61c0-3.02-.71-5.72-2.12-8.12-1.41-2.39-4.24-4.24-8.48-5.54s-6.75-2.43-7.53-3.39c-.79-.96-1.18-2.02-1.18-3.19,0-3.51,2.47-5.26,7.4-5.26,1.36,0,3.65.26,6.85.78,3.2.52,5.43.78,6.7.78,1.05,0,2.76-.21,5.12-.63,2.36-.42,5.17-.63,8.43-.63,5.67,0,8.51,6.02,8.51,18.05v7.69Z"/><path class="cls-1" d="M1306.78,166.99c2.41,0,4.03-.42,4.87-1.25.84-.83,1.26-2.33,1.26-4.52,0-7.99-3.12-15.46-9.34-22.42-6.23-6.96-15.62-10.43-28.18-10.43-8.69,0-17.66,4.13-26.92,12.38-9.26,8.25-13.89,19.95-13.89,35.1,0,11.08,4.88,21.03,14.65,29.85s20.71,13.24,32.83,13.24c9.19,0,19.12-2.88,29.77-8.63,4.07-2.2,6.74-3.3,7.99-3.3,1.88,0,3.37.53,4.47,1.59,1.1,1.06,1.65,2.39,1.65,3.98,0,3.82-5.78,8.45-17.35,13.89-11.56,5.44-23.47,8.16-35.71,8.16-18.11,0-33.33-6.18-45.68-18.52-12.35-12.35-18.52-27.05-18.52-44.11,0-15.59,6.77-28.93,20.33-40.03,13.55-11.09,28.75-16.64,45.6-16.64,21.87,0,38.25,5.6,49.13,16.8,10.88,11.2,16.32,24.59,16.32,40.19,0,3.35-.84,5.42-2.51,6.2s-4.75,1.18-9.24,1.18h-71.93c-5.85,0-8.78-2.17-8.78-6.52s3.03-6.2,9.1-6.2h50.07Z"/><path class="cls-1" d="M375.1,271.6c0-1.08-.32-1.91-.97-2.51-.65-.6-1.27-.9-1.87-.9-1.8,0-2.7-.56-2.7-1.68,0-1.3.65-1.96,1.94-1.96.36,0,1.06.11,2.1.32,1.04.21,1.83.31,2.37.31.72,0,1.47-.09,2.23-.27.77-.18,1.29-.27,1.56-.27.81,0,1.35.2,1.62.61.27.41.47,2.05.59,4.92s.18,6.22.18,10.03l-.09,7.83c0,1.38.08,2.24.25,2.58.16.35.52.68,1.08,1.01.55.33,1.21.54,1.96.63.75.09,1.3.23,1.64.43.34.2.52.62.52,1.25,0,1.06-.77,1.6-2.3,1.6-1.11,0-2.24-.11-3.38-.34-1.14-.22-2.27-.34-3.38-.34-.9,0-2.01.11-3.31.34-1.31.23-2.29.34-2.95.34-1.68,0-2.52-.49-2.52-1.46,0-.73.16-1.21.47-1.44.31-.23.89-.39,1.73-.5.84-.11,1.52-.34,2.05-.72.52-.37.85-.86.99-1.46s.2-1.83.2-3.68v-14.68ZM395.56,271.51c0-.66-.29-1.22-.87-1.68-.58-.46-1.22-.7-1.9-.7-1.49,0-3.26.85-5.29,2.54-1.19,1.04-2.06,1.56-2.6,1.56-.78,0-1.17-.34-1.17-1.03,0-1.53,1.4-3.31,4.2-5.33,2.8-2.02,5.33-3.04,7.58-3.04,1.92,0,3.6.68,5.04,2.05s2.16,2.98,2.16,4.83l-.09,18.17c0,.93.31,1.7.94,2.32.63.62,1.38.92,2.25.92,1.53,0,2.29.61,2.29,1.82,0,1.06-.8,1.6-2.39,1.6-.18,0-1.08-.1-2.68-.29-1.61-.2-2.95-.29-4.03-.29-1.8,0-3.32.11-4.55.34-1.23.23-2.03.34-2.39.34-.54,0-1.01-.17-1.42-.52-.41-.35-.61-.8-.61-1.35,0-.85.52-1.28,1.57-1.28.96,0,1.86-.31,2.7-.92.84-.61,1.26-1.53,1.26-2.76v-17.28ZM416.11,271.51c0-.66-.29-1.22-.87-1.68-.58-.46-1.22-.7-1.9-.7-1.19,0-2.67.68-4.41,2.05-1.75,1.37-2.9,2.05-3.47,2.05-.36,0-.68-.11-.96-.34-.28-.22-.42-.49-.42-.79,0-1.35,1.32-3.05,3.96-5.1,2.64-2.05,5.32-3.08,8.05-3.08,3.18,0,5.35,1.33,6.52,4,.42.81.63,5.25.63,13.31l-.09,7.64c0,.96.25,1.68.76,2.16s1.29.82,2.34,1.03,1.69.46,1.91.75c.22.29.34.63.34,1.03,0,1.12-.74,1.69-2.21,1.69-.21,0-1.11-.1-2.71-.29s-2.95-.29-4.06-.29-2.32.11-3.63.34c-1.31.23-2.4.34-3.27.34-.54,0-1.01-.17-1.42-.52-.41-.35-.61-.8-.61-1.34,0-.94.7-1.48,2.09-1.62s2.32-.5,2.77-1.1.67-1.35.67-2.24v-17.28Z"/><path class="cls-1" d="M465.03,287.44c0,2.16,1.44,3.65,4.32,4.49.72.21,1.25.46,1.6.73.34.27.52.79.52,1.55,0,.4-.23.74-.7,1.02-.46.29-.97.43-1.51.43-.57,0-1.34-.13-2.32-.41-.97-.27-1.76-.4-2.36-.4-.69,0-1.56.13-2.61.4-1.05.27-1.75.41-2.11.41-.42,0-.83-.15-1.24-.45-.4-.3-.61-.6-.61-.9,0-.48-.15-.72-.45-.72-.21,0-.48.1-.81.31-3.39,2.1-7.05,3.15-10.97,3.15-1.86,0-3.94-.48-6.23-1.44s-4.13-2.44-5.51-4.43c-1.38-1.99-2.07-4.46-2.07-7.4,0-3.12,1.49-5.88,4.47-8.27,2.98-2.4,6.81-3.6,11.51-3.6,1.59,0,3.33.44,5.23,1.33,1.9.88,2.85,1.79,2.85,2.72,0,.45-.2.81-.58,1.08-.39.27-.87.4-1.44.4-.39,0-1.15-.27-2.29-.81-1.14-.54-2.31-.81-3.51-.81-2.46,0-4.5.73-6.12,2.18-1.62,1.45-2.43,3.39-2.43,5.81,0,2.81.93,4.97,2.79,6.48,1.86,1.51,4,2.26,6.43,2.26,2.19,0,4.2-.72,6.05-2.16,1.84-1.44,2.77-3.36,2.77-5.76v-12.19c0-1.83-.61-3.31-1.82-4.45-1.21-1.14-2.83-1.71-4.87-1.71-2.6,0-5.13.83-7.58,2.47-.84.57-1.41.85-1.7.85-.72,0-1.33-.19-1.84-.56-.51-.37-.76-.86-.76-1.46,0-1.47,1.34-2.71,4.02-3.73,2.68-1.02,5.61-1.53,8.79-1.53,3.93,0,7.09.99,9.49,2.96,2.4,1.98,3.6,4.33,3.6,7.05v15.09Z"/><path class="cls-1" d="M482.71,269.71c0,.69.32,1.39.96,2.11.64.72,2.7,1.99,6.17,3.82,3.47,1.83,5.81,3.62,7.02,5.37,1.21,1.76,1.82,3.61,1.82,5.56,0,3.03-1.27,5.45-3.8,7.25-2.53,1.8-5.81,2.7-9.83,2.7-2.22,0-4.43-.49-6.63-1.46-2.2-.97-3.31-1.96-3.31-2.95,0-.81-.06-1.82-.18-3.01-.12-1.19-.18-2.15-.18-2.87,0-1.48.68-2.22,2.05-2.22.39,0,.76.17,1.09.5.33.33.86,1.43,1.57,3.3.71,1.87,1.58,3.16,2.61,3.84,1.03.69,2.18,1.04,3.46,1.04,1.58,0,2.92-.52,4.02-1.57,1.1-1.05,1.65-2.39,1.65-4.04,0-1.08-.37-2.09-1.12-3.03-.75-.94-2.79-2.21-6.12-3.79-3.33-1.59-5.5-3.14-6.5-4.65-1-1.51-1.5-3.15-1.5-4.92,0-2.33,1.09-4.3,3.26-5.88,2.17-1.59,4.7-2.38,7.58-2.38,2.4,0,4.74.42,7.02,1.25,2.28.83,3.42,1.72,3.42,2.66,0,.57.06,1.27.18,2.11.12.84.18,1.51.18,2.02,0,.63-.16,1.18-.48,1.66s-.72.72-1.21.72c-.7,0-1.19-.17-1.48-.52-.29-.35-.55-.96-.79-1.83-.24-.88-.62-1.57-1.16-2.08-.54-.51-1.25-.98-2.14-1.4-.89-.42-1.89-.63-2.99-.63s-2.15.35-3.15,1.06c-1,.7-1.49,1.46-1.49,2.27Z"/><path class="cls-1" d="M534.96,289.1c.84,0,1.26.7,1.26,2.1,0,.89-1.51,2.05-4.54,3.46-3.03,1.42-6.21,2.12-9.53,2.12-5.46,0-10.13-1.66-14.03-4.97-3.9-3.31-5.85-7.49-5.85-12.52,0-4.47,1.84-8.39,5.53-11.78s8.09-5.08,13.22-5.08c2.76,0,5.89.57,9.4,1.7,3.51,1.14,5.26,2.17,5.26,3.09,0,1.67.09,3.03.27,4.08.18,1.05.27,1.64.27,1.79,0,1.34-.62,2.02-1.87,2.02-.94,0-1.68-.9-2.2-2.7-.52-1.8-1.63-3.23-3.31-4.29-1.68-1.06-3.75-1.6-6.21-1.6-3.09,0-5.96,1.14-8.61,3.43-2.65,2.29-3.98,5.52-3.98,9.7,0,3.85,1.49,7,4.46,9.45,2.97,2.45,6.07,3.68,9.28,3.68,1.17,0,2.39-.15,3.65-.45,1.26-.3,2.67-.91,4.21-1.84,1.55-.93,2.65-1.39,3.31-1.39Z"/><path class="cls-1" d="M558.7,262.61c4.98,0,9.32,1.71,13.02,5.13,3.7,3.42,5.55,7.36,5.55,11.83,0,5.01-1.77,9.08-5.31,12.23-3.54,3.15-8.27,4.72-14.21,4.72-4.68,0-8.88-1.6-12.61-4.81s-5.6-7.2-5.6-11.96,1.64-8.55,4.92-11.98c3.28-3.43,8.03-5.15,14.23-5.15ZM558.75,292.56c3.45,0,6.2-1.24,8.25-3.73,2.05-2.49,3.08-5.64,3.08-9.44s-1.1-6.82-3.31-9.22c-2.2-2.4-5-3.6-8.39-3.6s-6.18,1.18-8.09,3.53c-1.92,2.35-2.88,5.39-2.88,9.11,0,4.11,1.06,7.36,3.19,9.76,2.13,2.4,4.84,3.6,8.14,3.6Z"/><path class="cls-1" d="M593.6,285.14c0,2.52.12,4.13.36,4.83.24.7.67,1.06,1.29,1.06.98,0,2.18-.54,3.6-1.62,1.42-1.08,2.38-1.62,2.87-1.62.4,0,.75.18,1.06.55.31.37.46.81.46,1.32,0,.85-1.18,2.24-3.53,4.16s-4.43,2.88-6.23,2.88c-4.74,0-7.1-3.47-7.1-10.42v-17.29c0-.57-.08-.88-.23-.92-.15-.04-.99-.07-2.52-.07-1.2,0-2.01-.17-2.43-.52-.42-.35-.63-.86-.63-1.53,0-.58.16-.99.47-1.23.31-.24.93-.49,1.84-.75.91-.25,1.62-.55,2.11-.9s1.18-1.06,2.07-2.16c.88-1.09,1.51-2.63,1.89-4.61.37-1.98.56-4.83.56-8.54,0-1.77.48-2.65,1.46-2.65,1.09,0,1.77.25,2.05.74.27.5.41,1.33.41,2.5v15.02c0,.6.39.9,1.17.9h6.39c1.29,0,1.93.56,1.93,1.68,0,1.31-.93,1.96-2.79,1.96h-5.62c-.42,0-.67.07-.76.2-.09.13-.14.47-.14,1.01v16.01Z"/><path class="cls-1" d="M640.37,287.44c0,2.16,1.44,3.65,4.32,4.49.72.21,1.25.46,1.6.73.34.27.52.79.52,1.55,0,.4-.23.74-.7,1.02-.46.29-.97.43-1.51.43-.57,0-1.34-.13-2.32-.41-.97-.27-1.76-.4-2.36-.4-.69,0-1.56.13-2.61.4-1.05.27-1.75.41-2.11.41-.42,0-.83-.15-1.24-.45-.4-.3-.61-.6-.61-.9,0-.48-.15-.72-.45-.72-.21,0-.48.1-.81.31-3.39,2.1-7.05,3.15-10.97,3.15-1.86,0-3.94-.48-6.23-1.44s-4.13-2.44-5.51-4.43c-1.38-1.99-2.07-4.46-2.07-7.4,0-3.12,1.49-5.88,4.47-8.27,2.98-2.4,6.81-3.6,11.51-3.6,1.59,0,3.33.44,5.23,1.33,1.9.88,2.85,1.79,2.85,2.72,0,.45-.2.81-.58,1.08-.39.27-.87.4-1.44.4-.39,0-1.15-.27-2.29-.81-1.14-.54-2.31-.81-3.51-.81-2.46,0-4.5.73-6.12,2.18-1.62,1.45-2.43,3.39-2.43,5.81,0,2.81.93,4.97,2.79,6.48,1.86,1.51,4,2.26,6.43,2.26,2.19,0,4.2-.72,6.05-2.16,1.84-1.44,2.77-3.36,2.77-5.76v-12.19c0-1.83-.61-3.31-1.82-4.45-1.21-1.14-2.83-1.71-4.87-1.71-2.6,0-5.13.83-7.58,2.47-.84.57-1.41.85-1.7.85-.72,0-1.33-.19-1.84-.56-.51-.37-.76-.86-.76-1.46,0-1.47,1.34-2.71,4.02-3.73,2.68-1.02,5.61-1.53,8.79-1.53,3.93,0,7.09.99,9.49,2.96,2.4,1.98,3.6,4.33,3.6,7.05v15.09Z"/><path class="cls-1" d="M658.04,269.71c0,.69.32,1.39.96,2.11.64.72,2.7,1.99,6.17,3.82,3.47,1.83,5.81,3.62,7.02,5.37,1.21,1.76,1.82,3.61,1.82,5.56,0,3.03-1.27,5.45-3.8,7.25-2.53,1.8-5.81,2.7-9.83,2.7-2.22,0-4.43-.49-6.63-1.46-2.2-.97-3.31-1.96-3.31-2.95,0-.81-.06-1.82-.18-3.01-.12-1.19-.18-2.15-.18-2.87,0-1.48.68-2.22,2.05-2.22.39,0,.76.17,1.09.5.33.33.86,1.43,1.57,3.3.71,1.87,1.58,3.16,2.61,3.84,1.03.69,2.18,1.04,3.46,1.04,1.58,0,2.92-.52,4.02-1.57,1.1-1.05,1.65-2.39,1.65-4.04,0-1.08-.37-2.09-1.12-3.03-.75-.94-2.79-2.21-6.12-3.79-3.33-1.59-5.5-3.14-6.5-4.65-1-1.51-1.5-3.15-1.5-4.92,0-2.33,1.09-4.3,3.26-5.88,2.17-1.59,4.7-2.38,7.58-2.38,2.4,0,4.74.42,7.02,1.25,2.28.83,3.42,1.72,3.42,2.66,0,.57.06,1.27.18,2.11.12.84.18,1.51.18,2.02,0,.63-.16,1.18-.48,1.66s-.72.72-1.21.72c-.7,0-1.19-.17-1.48-.52-.29-.35-.55-.96-.79-1.83-.24-.88-.62-1.57-1.16-2.08-.54-.51-1.25-.98-2.14-1.4-.89-.42-1.89-.63-2.99-.63s-2.15.35-3.15,1.06c-1,.7-1.49,1.46-1.49,2.27Z"/><path class="cls-1" d="M717.5,289.5c.77,0,1.16.38,1.16,1.12,0,.93-1.2,2.08-3.59,3.46-2.39,1.38-4.77,2.07-7.13,2.07-1.62,0-3.35-.55-5.2-1.64-1.85-1.09-3.01-2.45-3.48-4.08-.46-1.63-.7-4.57-.7-8.82l.09-9.02c0-2.42-1.08-3.86-3.24-4.31-1.26-.24-2.06-.48-2.41-.71-.34-.23-.52-.67-.52-1.34,0-.49.13-.9.41-1.25.27-.35.63-.52,1.08-.52.42,0,1.28.14,2.57.43s2.12.43,2.48.43c.42,0,1.29-.14,2.62-.43s2.15-.43,2.48-.43c.21,0,.47.11.77.32.3.21.47.43.52.67s.11,2.32.18,6.24.11,7.53.11,10.82c0,2.51.09,4.33.27,5.46.18,1.12.74,2.04,1.67,2.74.94.7,2.18,1.05,3.73,1.05,1.16,0,2.37-.38,3.62-1.12,1.25-.75,2.08-1.12,2.5-1.12ZM725.89,264.45c1.05,0,1.58.74,1.58,2.2,0,2.91.04,7.15.13,12.73s.14,9.32.14,11.24c0,6.72-.78,11.52-2.34,14.41-1.56,2.89-3.24,4.91-5.03,6.05s-3.97,1.71-6.56,1.71c-2.19,0-3.93-.31-5.21-.94-1.28-.63-1.92-1.2-1.92-1.71,0-.24.12-.5.36-.79.24-.29.52-.43.85-.43.24,0,.73.15,1.46.45.73.3,1.57.45,2.5.45,1.68,0,3.32-.56,4.92-1.68,1.6-1.12,2.64-2.67,3.1-4.64.46-1.97.7-4.92.7-8.84,0-14.06-.04-21.88-.11-23.47-.08-1.58-1.19-2.55-3.35-2.89-2.16-.34-3.24-1.06-3.24-2.16s.77-1.69,2.3-1.69c.51,0,1.44.09,2.77.27,1.34.18,2.44.27,3.32.27.66,0,1.35-.09,2.08-.27.72-.18,1.23-.27,1.53-.27Z"/><path class="cls-1" d="M784.27,289.1c.84,0,1.26.7,1.26,2.1,0,.89-1.51,2.05-4.54,3.46-3.03,1.42-6.21,2.12-9.53,2.12-5.46,0-10.13-1.66-14.03-4.97-3.9-3.31-5.85-7.49-5.85-12.52,0-4.47,1.84-8.39,5.53-11.78s8.09-5.08,13.22-5.08c2.76,0,5.89.57,9.4,1.7,3.51,1.14,5.26,2.17,5.26,3.09,0,1.67.09,3.03.27,4.08.18,1.05.27,1.64.27,1.79,0,1.34-.62,2.02-1.87,2.02-.94,0-1.68-.9-2.2-2.7-.52-1.8-1.63-3.23-3.31-4.29-1.68-1.06-3.75-1.6-6.21-1.6-3.09,0-5.96,1.14-8.61,3.43-2.65,2.29-3.98,5.52-3.98,9.7,0,3.85,1.49,7,4.46,9.45,2.97,2.45,6.07,3.68,9.28,3.68,1.17,0,2.39-.15,3.65-.45,1.26-.3,2.67-.91,4.21-1.84,1.55-.93,2.65-1.39,3.31-1.39Z"/><path class="cls-1" d="M821.91,287.44c0,2.16,1.44,3.65,4.32,4.49.72.21,1.25.46,1.6.73.35.27.52.79.52,1.55,0,.4-.23.74-.7,1.02s-.97.43-1.51.43c-.57,0-1.34-.13-2.32-.41-.97-.27-1.76-.4-2.36-.4-.69,0-1.56.13-2.61.4-1.05.27-1.75.41-2.11.41-.42,0-.83-.15-1.24-.45-.4-.3-.61-.6-.61-.9,0-.48-.15-.72-.45-.72-.21,0-.48.1-.81.31-3.39,2.1-7.05,3.15-10.97,3.15-1.86,0-3.94-.48-6.23-1.44s-4.13-2.44-5.51-4.43c-1.38-1.99-2.07-4.46-2.07-7.4,0-3.12,1.49-5.88,4.47-8.27,2.98-2.4,6.81-3.6,11.51-3.6,1.59,0,3.33.44,5.23,1.33,1.9.88,2.85,1.79,2.85,2.72,0,.45-.2.81-.58,1.08-.39.27-.87.4-1.44.4-.39,0-1.15-.27-2.29-.81-1.14-.54-2.31-.81-3.51-.81-2.46,0-4.5.73-6.12,2.18-1.62,1.45-2.43,3.39-2.43,5.81,0,2.81.93,4.97,2.79,6.48,1.86,1.51,4,2.26,6.43,2.26,2.19,0,4.2-.72,6.05-2.16,1.84-1.44,2.77-3.36,2.77-5.76v-12.19c0-1.83-.61-3.31-1.82-4.45-1.21-1.14-2.83-1.71-4.87-1.71-2.6,0-5.13.83-7.58,2.47-.84.57-1.41.85-1.7.85-.72,0-1.33-.19-1.84-.56-.51-.37-.76-.86-.76-1.46,0-1.47,1.34-2.71,4.02-3.73,2.68-1.02,5.61-1.53,8.79-1.53,3.93,0,7.09.99,9.49,2.96,2.4,1.98,3.6,4.33,3.6,7.05v15.09Z"/><path class="cls-1" d="M838.05,271.6c0-1.08-.32-1.91-.97-2.51-.65-.6-1.27-.9-1.87-.9-1.8,0-2.7-.56-2.7-1.68,0-1.3.65-1.96,1.94-1.96.36,0,1.06.11,2.1.32s1.83.31,2.37.31c.72,0,1.47-.09,2.23-.27.77-.18,1.29-.27,1.56-.27.81,0,1.35.2,1.62.61.27.41.47,2.05.59,4.92.12,2.88.18,6.22.18,10.03l-.09,7.83c0,1.38.08,2.24.25,2.58.16.35.52.68,1.08,1.01.55.33,1.21.54,1.96.63.75.09,1.3.23,1.64.43.34.2.52.62.52,1.25,0,1.06-.77,1.6-2.3,1.6-1.11,0-2.24-.11-3.38-.34-1.14-.22-2.27-.34-3.38-.34-.9,0-2.01.11-3.31.34-1.31.23-2.29.34-2.95.34-1.68,0-2.52-.49-2.52-1.46,0-.73.16-1.21.47-1.44.32-.23.89-.39,1.73-.5.84-.11,1.52-.34,2.05-.72.52-.37.85-.86.99-1.46.13-.6.2-1.83.2-3.68v-14.68ZM858.51,271.51c0-.66-.29-1.22-.87-1.68-.58-.46-1.22-.7-1.9-.7-1.49,0-3.26.85-5.29,2.54-1.2,1.04-2.06,1.56-2.6,1.56-.78,0-1.17-.34-1.17-1.03,0-1.53,1.4-3.31,4.21-5.33,2.8-2.02,5.33-3.04,7.58-3.04,1.92,0,3.6.68,5.04,2.05,1.44,1.36,2.16,2.98,2.16,4.83l-.09,18.17c0,.93.32,1.7.94,2.32.63.62,1.38.92,2.25.92,1.53,0,2.29.61,2.29,1.82,0,1.06-.8,1.6-2.39,1.6-.18,0-1.08-.1-2.68-.29s-2.95-.29-4.04-.29c-1.8,0-3.32.11-4.55.34-1.23.23-2.03.34-2.39.34-.54,0-1.01-.17-1.42-.52-.41-.35-.61-.8-.61-1.35,0-.85.52-1.28,1.57-1.28.96,0,1.86-.31,2.7-.92.84-.61,1.26-1.53,1.26-2.76v-17.28ZM879.06,271.51c0-.66-.29-1.22-.87-1.68-.58-.46-1.22-.7-1.9-.7-1.2,0-2.67.68-4.41,2.05-1.75,1.37-2.9,2.05-3.47,2.05-.36,0-.68-.11-.96-.34-.28-.22-.42-.49-.42-.79,0-1.35,1.32-3.05,3.96-5.1,2.64-2.05,5.32-3.08,8.05-3.08,3.18,0,5.35,1.33,6.52,4,.42.81.63,5.25.63,13.31l-.09,7.64c0,.96.25,1.68.76,2.16s1.29.82,2.34,1.03c1.05.21,1.69.46,1.91.75.22.29.34.63.34,1.03,0,1.12-.74,1.69-2.21,1.69-.21,0-1.11-.1-2.71-.29s-2.95-.29-4.06-.29-2.32.11-3.63.34c-1.31.23-2.4.34-3.27.34-.54,0-1.01-.17-1.42-.52-.41-.35-.61-.8-.61-1.34,0-.94.7-1.48,2.09-1.62,1.39-.13,2.32-.5,2.77-1.1.45-.6.67-1.35.67-2.24v-17.28Z"/><path class="cls-1" d="M901.59,302.11c.18-1.71.27-6.43.27-14.18,0-3.74-.09-9.2-.27-16.38-.06-.75-.37-1.4-.92-1.95-.56-.55-1.72-.98-3.49-1.28-1.35-.21-2.23-.47-2.63-.77s-.61-.68-.61-1.14c0-1.18.93-1.78,2.8-1.78.36,0,1.25.14,2.66.43,1.41.29,2.3.43,2.66.43.39,0,1.2-.17,2.44-.52,1.23-.34,2-.52,2.3-.52.81,0,1.32.18,1.53.54.21.36.32.91.32,1.66v15.85c0,3.23,1.02,5.8,3.06,7.7s4.42,2.85,7.15,2.85c1.32,0,3-.58,5.06-1.72,2.05-1.15,3.66-2.82,4.81-5,1.15-2.18,1.73-4.65,1.73-7.39,0-3.26-1-6.16-2.99-8.69-1.99-2.54-4.31-3.81-6.95-3.81-1.59,0-3.05.29-4.38.88-1.33.58-2.21.88-2.63.88s-.79-.13-1.12-.4-.49-.6-.49-.99c0-.88,1.1-1.78,3.3-2.71,2.2-.92,4.09-1.39,5.68-1.39,4.85,0,8.91,1.54,12.19,4.63,3.28,3.09,4.92,7.29,4.92,12.59,0,4.11-1.69,7.88-5.07,11.33-3.38,3.45-7.45,5.17-12.21,5.17-1.83,0-3.55-.24-5.19-.72-1.63-.48-3.76-1.59-6.4-3.33-.24,0-.36.76-.36,2.29,0,3.81-.26,6.71-.77,8.7-.51,1.99-1.38,3.72-2.62,5.19-1.23,1.47-2.44,2.51-3.63,3.12-1.19.61-2.34.92-3.45.92-1.66,0-2.48-.4-2.48-1.19,0-.34.38-.7,1.12-1.1,1.8-.99,3.03-2.27,3.69-3.84.66-1.57.99-3.03.99-4.38Z"/><path class="cls-1" d="M959.78,262.61c4.98,0,9.32,1.71,13.02,5.13,3.7,3.42,5.55,7.36,5.55,11.83,0,5.01-1.77,9.08-5.31,12.23-3.54,3.15-8.27,4.72-14.21,4.72-4.68,0-8.88-1.6-12.61-4.81s-5.6-7.2-5.6-11.96,1.64-8.55,4.92-11.98c3.28-3.43,8.03-5.15,14.23-5.15ZM959.83,292.56c3.45,0,6.2-1.24,8.25-3.73,2.05-2.49,3.08-5.64,3.08-9.44s-1.1-6.82-3.3-9.22c-2.2-2.4-5-3.6-8.39-3.6s-6.18,1.18-8.09,3.53c-1.92,2.35-2.88,5.39-2.88,9.11,0,4.11,1.06,7.36,3.19,9.76s4.84,3.6,8.14,3.6Z"/><path class="cls-1" d="M1364.06,90.04s58.11-7.45,48.39-90.04c0,0-86.21,5.22-60.94,86.42,0,0,16.05-38.1,33.03-48.78,0,0-21.13,37.55-20.48,52.41Z"/><path class="cls-2" d="M1329.13,109.51s33.88-47.8-33.47-96.59c0,0-54.55,66.96,22.3,103.36,0,0-17.16-37.61-13.52-57.33,0,0,13.31,40.97,24.68,50.56Z"/><path class="cls-1" d="M1336.48,120.54s35.69-46.46,102.16,3.52c0,0-47.91,71.86-105.34,9.14,0,0,41,5.31,58.78-3.98,0,0-43.08-.65-55.59-8.69Z"/></g></svg>